<svg width="63" height="67" viewBox="0 0 63 67" fill="none" xmlns="http://www.w3.org/2000/svg">
                    <path d="M62.8254 21.8054C63.2431 22.9441 62.8906 24.2137 61.9898 25.0252L56.3371 30.1821C56.4807 31.2684 56.559 32.3809 56.559 33.5065C56.559 34.6322 56.4807 35.7447 56.3371 36.831L61.9898 41.9879C62.8906 42.7994 63.2431 44.069 62.8254 45.2077C62.2509 46.7652 61.559 48.2573 60.7627 49.697L60.1491 50.7572C59.2875 52.1969 58.3214 53.5581 57.2639 54.8408C56.4937 55.7832 55.2143 56.0973 54.0655 55.7308L46.7939 53.4141C45.0445 54.7623 43.1124 55.8879 41.0497 56.7386L39.4178 64.2122C39.1567 65.4032 38.2429 66.3456 37.0418 66.5419C35.2402 66.8429 33.3864 67 31.4935 67C29.6005 67 27.7467 66.8429 25.9451 66.5419C24.7441 66.3456 23.8302 65.4032 23.5691 64.2122L21.9372 56.7386C19.8746 55.8879 17.9424 54.7623 16.1931 53.4141L8.93452 55.7439C7.78568 56.1104 6.5063 55.7832 5.73605 54.8539C4.6786 53.5712 3.71254 52.21 2.85091 50.7703L2.23733 49.7101C1.44097 48.2704 0.749061 46.7783 0.174644 45.2207C-0.243115 44.082 0.109369 42.8125 1.01016 42.001L6.66295 36.8441C6.51935 35.7447 6.44102 34.6322 6.44102 33.5065C6.44102 32.3809 6.51935 31.2684 6.66295 30.1821L1.01016 25.0252C0.109369 24.2137 -0.243115 22.9441 0.174644 21.8054C0.749061 20.2479 1.44097 18.7558 2.23733 17.3161L2.85091 16.2559C3.71254 14.8162 4.6786 13.455 5.73605 12.1723C6.5063 11.2299 7.78568 10.9158 8.93452 11.2823L16.2061 13.5989C17.9555 12.2508 19.8876 11.1252 21.9503 10.2745L23.5822 2.80094C23.8433 1.60988 24.7571 0.667513 25.9582 0.471186C27.7598 0.157062 29.6136 0 31.5065 0C33.3995 0 35.2533 0.157062 37.0549 0.458097C38.2559 0.654425 39.1698 1.5968 39.4309 2.78785L41.0628 10.2614C43.1254 11.1121 45.0576 12.2377 46.8069 13.5859L54.0785 11.2692C55.2274 10.9027 56.5068 11.2299 57.277 12.1592C58.3345 13.4419 59.3005 14.8031 60.1621 16.2428L60.7757 17.303C61.5721 18.7427 62.264 20.2348 62.8384 21.7923L62.8254 21.8054ZM31.5065 43.9773C34.2764 43.9773 36.9329 42.8742 38.8915 40.9105C40.8501 38.9469 41.9505 36.2836 41.9505 33.5065C41.9505 30.7295 40.8501 28.0662 38.8915 26.1026C36.9329 24.1389 34.2764 23.0358 31.5065 23.0358C28.7366 23.0358 26.0802 24.1389 24.1215 26.1026C22.1629 28.0662 21.0626 30.7295 21.0626 33.5065C21.0626 36.2836 22.1629 38.9469 24.1215 40.9105C26.0802 42.8742 28.7366 43.9773 31.5065 43.9773Z" fill="white"/>
                    </svg>
