<svg width="68" height="67" viewBox="0 0 68 67" fill="none" xmlns="http://www.w3.org/2000/svg">
                    <path d="M0.333252 8C0.333252 3.58172 3.91497 0 8.33325 0H25.3333C27.5424 0 29.3333 1.79086 29.3333 4V15C29.3333 17.2091 27.5424 19 25.3333 19H4.33325C2.12411 19 0.333252 17.2091 0.333252 15V8Z" fill="white"/>
                    <path d="M37.3333 4C37.3333 1.79086 39.1241 0 41.3333 0H59.3333C63.7515 0 67.3333 3.58172 67.3333 8V36C67.3333 38.2091 65.5424 40 63.3333 40H41.3333C39.1241 40 37.3333 38.2091 37.3333 36V4Z" fill="white"/>
                    <path d="M0.333252 31C0.333252 28.7909 2.12411 27 4.33325 27H25.3333C27.5424 27 29.3333 28.7909 29.3333 31V63C29.3333 65.2091 27.5424 67 25.3333 67H8.33325C3.91497 67 0.333252 63.4183 0.333252 59V31Z" fill="white"/>
                    <path d="M37.3333 52C37.3333 49.7909 39.1241 48 41.3333 48H63.3333C65.5424 48 67.3333 49.7909 67.3333 52V59C67.3333 63.4183 63.7515 67 59.3333 67H41.3333C39.1241 67 37.3333 65.2091 37.3333 63V52Z" fill="white"/>
                    </svg>
