<svg width="67" height="67" viewBox="0 0 67 67" fill="none" xmlns="http://www.w3.org/2000/svg">
                    <path d="M59 0C63.4183 7.08682e-07 67 3.58172 67 8V59C67 63.4183 63.4183 67 59 67H8C3.58172 67 0 63.4183 0 59V8C7.08705e-07 3.58172 3.58172 0 8 0H59ZM10.0361 6C7.80702 6.00012 6 7.79094 6 10C6 12.2091 7.80702 13.9999 10.0361 14C12.2654 14 14.0723 12.2091 14.0723 10C14.0723 7.79086 12.2654 6 10.0361 6ZM20.7998 6C18.5707 6.0001 16.7637 7.79093 16.7637 10C16.7637 12.2091 18.5707 13.9999 20.7998 14H56.9639C59.193 13.9999 61 12.2091 61 10C61 7.79094 59.193 6.00012 56.9639 6H20.7998Z" fill="white"/>
                    <path opacity="0.4" d="M5 22C5 20.8954 5.89543 20 7 20H59C60.1046 20 61 20.8954 61 22V55C61 58.3137 58.3137 61 55 61H11C7.68629 61 5 58.3137 5 55V22Z" fill="#1F262F"/>
                    </svg>
