<svg width="97" height="67" viewBox="0 0 97 67" fill="none" xmlns="http://www.w3.org/2000/svg">
                    <path d="M53.3212 30.547H43.4069V21.6655H53.3212V30.547ZM53.3212 0H43.4069V9.07587H53.3212V0ZM65.0504 21.6505H55.1361V30.532H65.0504V21.6505ZM41.607 10.8701H31.6927V19.8563H41.607V10.8701ZM53.3212 10.8701H43.4069V19.8563H53.3212V10.8701ZM94.8384 25.8221C92.6785 24.3718 87.6989 23.8485 83.8741 24.5662C83.3792 20.9777 81.3693 17.8527 77.7096 15.0417L75.6097 13.6512L74.2148 15.7445C71.455 19.9011 70.705 26.7492 73.6598 31.2647C72.3549 31.9674 69.7901 32.9243 66.4003 32.8645H1.19977C-0.105146 40.4602 2.06971 50.3285 7.79932 57.1018C13.3639 63.6657 21.7034 67 32.6076 67C56.216 67 73.6898 56.1598 81.8643 36.468C85.0741 36.5278 92.0036 36.4829 95.5583 29.7097C95.7833 29.3359 96.5483 27.736 96.8332 27.1529L94.8384 25.8221ZM18.1786 21.6505H8.27928V30.532H18.1936V21.6505H18.1786ZM29.8928 21.6505H19.9785V30.532H29.8928V21.6505ZM41.607 21.6505H31.6927V30.532H41.607V21.6505ZM29.8928 10.8701H19.9785V19.8563H29.8928V10.8701Z" fill="white"/>
                    </svg>
