<svg width="120" height="121" viewBox="0 0 120 121" fill="none" xmlns="http://www.w3.org/2000/svg">
<path d="M59.804 28.99C68.596 20.198 96.9786 13.333 102.139 18.4937C105.424 21.7785 103.837 34.4714 99.9816 45.5323C99.9816 45.5323 87.5851 36.6258 75.215 40.9554C62.845 45.2849 59.804 60.829 59.804 60.829C51.0119 52.0369 51.0119 37.7821 59.804 28.99Z" fill="#8BBB25"/>
<path d="M82.1423 38.0806C94.5761 38.0806 119.5 53.2958 119.5 60.5941C119.5 65.2396 109.402 73.0925 98.855 78.1876C98.855 78.1876 96.3872 63.1242 84.5788 57.4386C72.7704 51.7531 59.6287 60.5941 59.6287 60.5941C59.6287 48.1602 69.7084 38.0806 82.1423 38.0806Z" fill="#18C249"/>
<path d="M91.5098 60.3042C100.302 69.0963 107.167 97.4788 102.006 102.639C98.7214 105.924 86.0284 104.337 74.9676 100.482C74.9676 100.482 83.874 88.0853 79.5445 75.7153C75.215 63.3452 59.6709 60.3042 59.6709 60.3042C68.463 51.5121 82.7177 51.5121 91.5098 60.3042Z" fill="#1BA3A0"/>
<path d="M82.4193 82.6425C82.4193 95.0764 67.2041 120 59.9057 120C55.2603 120 47.4074 109.903 42.3122 99.3553C42.3122 99.3553 57.3757 96.8875 63.0612 85.079C68.7468 73.2706 59.9057 60.129 59.9057 60.129C72.3396 60.129 82.4193 70.2086 82.4193 82.6425Z" fill="#1E83F7"/>
<path d="M60.1957 92.0101C51.4036 100.802 23.0211 107.667 17.8604 102.506C14.5756 99.2217 16.1629 86.5287 20.0181 75.4679C20.0181 75.4679 32.4146 84.3743 44.7846 80.0448C57.1547 75.7153 60.1957 60.1712 60.1957 60.1712C68.9878 68.9633 68.9878 83.2181 60.1957 92.0101Z" fill="#857ED6"/>
<path d="M37.8574 82.9196C25.4235 82.9196 0.499756 67.7044 0.499756 60.406C0.499756 55.7606 10.5974 47.9077 21.1446 42.8125C21.1446 42.8125 23.6125 57.876 35.4209 63.5615C47.2293 69.2471 60.3709 60.406 60.3709 60.406C60.3709 72.8399 50.2913 82.9196 37.8574 82.9196Z" fill="#ED79B5"/>
<path d="M28.4898 60.696C19.6977 51.9039 12.8327 23.5214 17.9935 18.3607C21.2783 15.0758 33.9712 16.6631 45.0321 20.5183C45.0321 20.5183 36.1256 32.9148 40.4551 45.2849C44.7847 57.655 60.3288 60.696 60.3288 60.696C51.5367 69.4881 37.2819 69.4881 28.4898 60.696Z" fill="#F3516B"/>
<path d="M37.5804 38.3576C37.5804 25.9238 52.7956 1 60.0939 1C64.7394 1 72.5923 11.0976 77.6874 21.6449C77.6874 21.6449 62.624 24.1127 56.9384 35.9211C51.2529 47.7295 60.0939 60.8712 60.0939 60.8712C47.6601 60.8712 37.5804 50.7915 37.5804 38.3576Z" fill="#FA2921"/>
<path d="M60.0935 0.875977C61.2957 0.875977 62.6851 1.52707 64.1609 2.64355C65.6402 3.76274 67.2233 5.36254 68.8171 7.28809C71.6641 10.7276 74.5532 15.2191 76.9558 19.9014C78.7279 19.3339 80.5249 18.8263 82.3035 18.3896C86.7292 17.3031 91.0458 16.6521 94.5818 16.5967C96.3496 16.569 97.9265 16.6896 99.2263 16.9814C100.524 17.2728 101.558 17.7377 102.226 18.4062C103.076 19.2564 103.598 20.6991 103.852 22.5322C104.107 24.3696 104.096 26.6199 103.861 29.1084C103.442 33.5537 102.308 38.7724 100.696 43.7822C102.351 44.6342 103.981 45.546 105.548 46.4951C109.445 48.8563 112.958 51.4471 115.498 53.9082C116.767 55.1386 117.797 56.3394 118.51 57.4648C119.221 58.5885 119.624 59.6482 119.624 60.5938C119.624 61.796 118.973 63.1853 117.856 64.6611C116.737 66.1405 115.137 67.7235 113.212 69.3174C109.772 72.1645 105.28 75.0525 100.597 77.4551C101.165 79.2276 101.673 81.0247 102.11 82.8037C103.197 87.2295 103.848 91.546 103.903 95.082C103.931 96.8498 103.81 98.4268 103.518 99.7266C103.227 101.024 102.762 102.058 102.094 102.727C101.243 103.577 99.8014 104.098 97.9685 104.353C96.131 104.607 93.8801 104.596 91.3914 104.361C86.9457 103.942 81.7267 102.809 76.7166 101.196C75.8647 102.851 74.9546 104.481 74.0056 106.048C71.6444 109.946 69.0527 113.459 66.5916 115.998C65.3611 117.268 64.1604 118.297 63.0349 119.01C61.9112 119.721 60.8516 120.124 59.906 120.124C58.7037 120.124 57.3144 119.473 55.8386 118.356C54.3593 117.237 52.7763 115.638 51.1824 113.712C48.3352 110.272 45.4464 105.78 43.0437 101.098C41.2715 101.665 39.4748 102.174 37.696 102.61C33.2703 103.697 28.9537 104.348 25.4177 104.403C23.65 104.431 22.073 104.31 20.7732 104.019C19.4755 103.727 18.4418 103.262 17.7732 102.594C16.9231 101.744 16.4013 100.302 16.1472 98.4688C15.8926 96.6313 15.9039 94.3803 16.1384 91.8916C16.5574 87.446 17.6903 82.2269 19.3025 77.2168C17.6483 76.3651 16.0182 75.4547 14.4519 74.5059C10.5543 72.1448 7.04219 69.5528 4.50269 67.0918C3.23301 65.8613 2.20274 64.6607 1.48999 63.5352C0.778427 62.4115 0.375793 61.3518 0.375732 60.4062C0.375732 59.204 1.02676 57.8147 2.14331 56.3389C3.26252 54.8595 4.86224 53.2765 6.78784 51.6826C10.2275 48.8355 14.7187 45.9456 19.4011 43.543C18.8337 41.7712 18.326 39.9746 17.8894 38.1963C16.8029 33.7705 16.1519 29.454 16.0964 25.918C16.0687 24.1502 16.1894 22.5732 16.4812 21.2734C16.7726 19.9758 17.2374 18.9421 17.906 18.2734C18.7561 17.4233 20.1989 16.9015 22.032 16.6475C23.8694 16.3929 26.1197 16.4041 28.6082 16.6387C33.0534 17.0577 38.2722 18.1907 43.282 19.8027C44.1338 18.1483 45.0459 16.5187 45.9949 14.9521C48.3559 11.0546 50.947 7.54241 53.408 5.00293C54.6384 3.73327 55.8391 2.70298 56.9646 1.99023C58.0882 1.27868 59.148 0.876101 60.0935 0.875977Z" stroke="#0C1117" stroke-width="0.247402"/>
<path fill-rule="evenodd" clip-rule="evenodd" d="M37.5803 38.3576C37.5803 25.9238 52.7955 0.999999 60.0939 1C64.7037 1 72.4719 10.9433 77.5696 21.4022L74.9676 22.277C73.9848 20.2846 72.9011 18.3099 71.7599 16.4261C69.4709 12.6476 67.0047 9.32318 64.7364 6.98255C63.6002 5.81017 62.5736 4.94718 61.7007 4.3944C60.7902 3.81778 60.272 3.72142 60.0939 3.72142C59.9158 3.72142 59.3976 3.81778 58.4871 4.3944C57.6142 4.94718 56.5876 5.81017 55.4514 6.98255C53.183 9.32318 50.7168 12.6476 48.4279 16.4261C46.1455 20.1938 44.0927 24.3249 42.6181 28.2352C41.1265 32.1908 40.3018 35.7245 40.3018 38.3576C40.3018 49.2885 49.163 58.1498 60.0939 58.1498V60.8712C47.66 60.8712 37.5803 50.7915 37.5803 38.3576Z" fill="#0C1117"/>
<path fill-rule="evenodd" clip-rule="evenodd" d="M59.8039 28.99C68.596 20.1979 96.9785 13.333 102.139 18.4937C105.399 21.7533 103.861 34.2773 100.07 45.2774L97.6114 44.0561C98.3253 41.9523 98.9553 39.7897 99.4804 37.6507C100.534 33.3603 101.141 29.2658 101.192 26.0067C101.217 24.3743 101.102 23.0382 100.875 22.0301C100.639 20.9785 100.341 20.544 100.215 20.418C100.089 20.2921 99.6544 19.9938 98.6028 19.7577C97.5947 19.5313 96.2586 19.4157 94.6262 19.4413C91.3671 19.4923 87.2725 20.0992 82.9822 21.1525C78.7041 22.2028 74.3314 23.6723 70.5238 25.3946C66.672 27.1369 63.5901 29.0525 61.7282 30.9144C55.216 37.4265 54.1906 47.3477 58.6518 54.9335C59.0392 55.5922 59.4679 56.2333 59.938 56.853C60.4798 57.5672 61.0765 58.253 61.7282 58.9047L59.8039 60.829C51.0118 52.0369 51.0118 37.7821 59.8039 28.99Z" fill="#0C1117"/>
<path fill-rule="evenodd" clip-rule="evenodd" d="M28.4898 60.696C19.6977 51.9039 12.8327 23.5214 17.9934 18.3607C21.2531 15.101 33.777 16.6391 44.7772 20.43L43.5559 22.8885C41.4521 22.1745 39.2895 21.5446 37.1505 21.0195C32.8601 19.9662 28.7655 19.3593 25.5065 19.3082C23.8741 19.2827 22.5379 19.3983 21.5298 19.6247C20.4783 19.8608 20.0437 20.159 19.9178 20.285C19.7918 20.411 19.4936 20.8455 19.2575 21.897C19.0311 22.9052 18.9154 24.2413 18.941 25.8737C18.9921 29.1328 19.599 33.2273 20.6523 37.5177C21.7025 41.7958 23.1721 46.1685 24.8944 49.9761C26.6367 53.8278 28.5523 56.9098 30.4141 58.7717C38.1434 66.501 50.6751 66.501 58.4044 58.7717L60.3288 60.696C51.5367 69.4881 37.2819 69.4881 28.4898 60.696Z" fill="#0C1117"/>
<path fill-rule="evenodd" clip-rule="evenodd" d="M82.1422 38.0806C94.576 38.0806 119.5 53.2958 119.5 60.5941C119.5 65.2039 109.556 72.9722 99.0976 78.0699L98.2228 75.4679C100.215 74.4851 102.19 73.4013 104.074 72.2601C107.852 69.9712 111.177 67.505 113.517 65.2366C114.69 64.1004 115.553 63.0738 116.105 62.2009C116.682 61.2904 116.778 60.7723 116.778 60.5941C116.778 60.416 116.682 59.8979 116.105 58.9873C115.553 58.1144 114.69 57.0878 113.517 55.9517C111.177 53.6833 107.852 51.2171 104.074 48.9281C100.306 46.6457 96.1749 44.5929 92.2646 43.1184C88.309 41.6268 84.7753 40.802 82.1422 40.802C71.2113 40.802 62.35 49.6632 62.35 60.5941H59.6286C59.6286 59.3196 59.7345 58.0698 59.938 56.853C60.0467 56.2033 60.1832 55.5631 60.3462 54.9335C62.8566 45.2396 71.6634 38.0806 82.1422 38.0806Z" fill="#0C1117"/>
<path fill-rule="evenodd" clip-rule="evenodd" d="M91.5097 60.3042C100.302 69.0963 107.167 97.4788 102.006 102.639C98.7465 105.899 86.2225 104.361 75.2223 100.57L76.4436 98.1117C78.5475 98.8256 80.7101 99.4556 82.8491 99.9807C87.1394 101.034 91.234 101.641 94.4931 101.692C96.1255 101.718 97.4616 101.602 98.4697 101.375C99.5213 101.139 99.9558 100.841 100.082 100.715C100.208 100.589 100.506 100.155 100.742 99.1031C100.968 98.095 101.084 96.7589 101.059 95.1265C101.007 91.8674 100.401 87.7728 99.3473 83.4824C98.297 79.2044 96.8275 74.8317 95.1051 71.0241C93.3628 67.1723 91.4473 64.0904 89.5854 62.2285C81.8561 54.4992 69.3244 54.4992 61.5951 62.2285L59.6708 60.3042C68.4629 51.5121 82.7177 51.5121 91.5097 60.3042Z" fill="#0C1117"/>
<path fill-rule="evenodd" clip-rule="evenodd" d="M82.4192 82.6425C82.4192 95.0764 67.204 120 59.9057 120C55.2959 120 47.5276 110.057 42.4299 99.5979L45.0319 98.7231C46.0147 100.716 47.0985 102.69 48.2397 104.574C50.5286 108.353 52.9948 111.677 55.2632 114.018C56.3994 115.19 57.426 116.053 58.2989 116.606C59.2094 117.182 59.7275 117.279 59.9057 117.279C60.0838 117.279 60.6019 117.182 61.5125 116.606C62.3854 116.053 63.4119 115.19 64.5481 114.018C66.8165 111.677 69.2827 108.353 71.5717 104.574C73.8541 100.806 75.9069 96.6752 77.3814 92.765C78.873 88.8094 79.6978 85.2756 79.6978 82.6425C79.6978 71.7116 70.8366 62.8504 59.9057 62.8504V60.129C72.3396 60.129 82.4192 70.2086 82.4192 82.6425Z" fill="#0C1117"/>
<path fill-rule="evenodd" clip-rule="evenodd" d="M60.1957 92.0101C51.4036 100.802 23.0211 107.667 17.8604 102.506C14.6007 99.2469 16.1387 86.7229 19.9297 75.7227L22.3882 76.944C21.6742 79.0478 21.0443 81.2105 20.5192 83.3494C19.4659 87.6398 18.859 91.7344 18.8079 94.9935C18.7823 96.6259 18.898 97.962 19.1244 98.9701C19.3605 100.022 19.6587 100.456 19.7847 100.582C19.9106 100.708 20.3452 101.006 21.3967 101.242C22.4048 101.469 23.741 101.585 25.3734 101.559C28.6324 101.508 32.727 100.901 37.0174 99.8477C41.2955 98.7974 45.6682 97.3278 49.4758 95.6055C53.3275 93.8632 56.4095 91.9477 58.2713 90.0858C66.0006 82.3565 66.0007 69.8248 58.2713 62.0955L60.1957 60.1712C68.9878 68.9633 68.9878 83.218 60.1957 92.0101Z" fill="#0C1117"/>
<path fill-rule="evenodd" clip-rule="evenodd" d="M37.8574 82.9196C25.4235 82.9196 0.499756 67.7044 0.499756 60.406C0.499756 55.7962 10.4431 48.028 20.902 42.9303L21.7768 45.5323C19.7843 46.5151 17.8097 47.5989 15.9259 48.74C12.1474 51.029 8.82293 53.4952 6.48231 55.7636C5.30992 56.8997 4.44694 57.9263 3.89415 58.7992C3.31753 59.7098 3.22117 60.2279 3.22117 60.406C3.22117 60.5842 3.31753 61.1023 3.89415 62.0128C4.44694 62.8857 5.30992 63.9123 6.48231 65.0485C8.82293 67.3169 12.1474 69.7831 15.9259 72.072C19.6936 74.3544 23.8247 76.4073 27.7349 77.8818C31.6906 79.3734 35.2243 80.1982 37.8574 80.1982C48.7883 80.1982 57.6495 71.3369 57.6495 60.406H60.3709C60.3709 72.8399 50.2913 82.9196 37.8574 82.9196Z" fill="#0C1117"/>
<path d="M58.6518 54.9335C59.0392 55.5922 59.4679 56.2333 59.938 56.853C60.0467 56.2033 60.1832 55.5631 60.3462 54.9335C60.3462 54.9335 60.1235 55.4283 59.6287 55.4283C58.9527 55.4283 58.6518 54.9335 58.6518 54.9335Z" fill="#0C1117"/>
<path d="M62.9652 55.6757C62.7734 56.4154 62.6232 57.1719 62.5175 57.9425C63.0537 57.56 63.6029 57.2037 64.1633 56.8739C64.1633 56.8739 63.656 57.0663 63.3061 56.7164C62.8281 56.2384 62.9652 55.6757 62.9652 55.6757Z" fill="#0C1117"/>
<path d="M64.8737 63.4689C64.134 63.277 63.3775 63.1269 62.6069 63.0211C62.9894 63.5573 63.3457 64.1066 63.6755 64.667C63.6755 64.667 63.4831 64.1597 63.833 63.8098C64.311 63.3318 64.8737 63.4689 64.8737 63.4689Z" fill="#0C1117"/>
<path d="M61.3408 66.0419C60.9534 65.3832 60.5246 64.7421 60.0545 64.1224C59.9459 64.7721 59.8094 65.4123 59.6464 66.0419C59.6464 66.0419 59.869 65.5471 60.3638 65.5471C61.0399 65.5471 61.3408 66.0419 61.3408 66.0419Z" fill="#0C1117"/>
<path d="M57.0211 65.3739C57.213 64.6342 57.3631 63.8777 57.4689 63.1071C56.9327 63.4897 56.3835 63.8459 55.823 64.1758C55.823 64.1758 56.3303 63.9833 56.6802 64.3332C57.1582 64.8112 57.0211 65.3739 57.0211 65.3739Z" fill="#0C1117"/>
<path d="M54.4333 61.8484C55.092 61.461 55.7331 61.0323 56.3528 60.5622C55.7031 60.4535 55.0629 60.3171 54.4333 60.154C54.4333 60.154 54.9281 60.3767 54.9281 60.8715C54.9281 61.5475 54.4333 61.8484 54.4333 61.8484Z" fill="#0C1117"/>
<path d="M55.126 57.5313C55.8657 57.7231 56.6222 57.8732 57.3928 57.979C57.0102 57.4428 56.654 56.8936 56.3242 56.3331C56.3242 56.3331 56.5166 56.8405 56.1667 57.1903C55.6887 57.6684 55.126 57.5313 55.126 57.5313Z" fill="#0C1117"/>
<path d="M65.5664 59.1517C64.9077 59.5391 64.2666 59.9679 63.6469 60.438C64.2966 60.5466 64.9368 60.6831 65.5664 60.8461C65.5664 60.8461 65.0716 60.6235 65.0716 60.1287C65.0716 59.4526 65.5664 59.1517 65.5664 59.1517Z" fill="#0C1117"/>
</svg>
