<svg width="1081" height="982" viewBox="0 0 1081 982" fill="none" xmlns="http://www.w3.org/2000/svg">
<g clip-path="url(#clip0_146_338)">
<g opacity="0.5">
<path d="M762.541 -80.596C872.922 -190.977 1229.25 -277.164 1294.04 -212.374C1335.28 -171.134 1315.36 -11.779 1266.96 127.085C1266.96 127.085 1111.32 15.2683 956.021 69.6238C800.72 123.979 762.541 319.13 762.541 319.13C652.16 208.748 652.16 29.7852 762.541 -80.596Z" fill="#8BBB25"/>
<path d="M1042.99 33.5323C1199.09 33.5323 1512 224.553 1512 316.181C1512 374.503 1385.23 473.093 1252.81 537.06C1252.81 537.06 1221.83 347.944 1073.58 276.565C925.329 205.185 760.341 316.181 760.341 316.181C760.341 160.078 886.887 33.5323 1042.99 33.5323Z" fill="#18C249"/>
<path d="M1160.6 312.541C1270.98 422.922 1357.16 779.253 1292.37 844.044C1251.13 885.283 1091.78 865.356 952.914 816.955C952.914 816.955 1064.73 661.322 1010.38 506.021C956.02 350.719 760.87 312.541 760.87 312.541C871.251 202.16 1050.21 202.16 1160.6 312.541Z" fill="#1BA3A0"/>
<path d="M1046.47 592.99C1046.47 749.092 855.446 1062 763.819 1062C705.497 1062 606.907 935.228 542.939 802.812C542.939 802.812 732.055 771.829 803.435 623.579C874.814 475.329 763.819 310.341 763.819 310.341C919.921 310.341 1046.47 436.887 1046.47 592.99Z" fill="#1E83F7"/>
<path d="M767.46 710.596C657.078 820.978 300.747 907.165 235.956 842.374C194.717 801.134 214.644 641.779 263.045 502.915C263.045 502.915 418.678 614.732 573.979 560.377C729.281 506.021 767.46 310.871 767.46 310.871C877.841 421.252 877.841 600.215 767.46 710.596Z" fill="#857ED6"/>
<path d="M487.011 596.468C330.908 596.468 18.0002 405.447 18.0002 313.819C18.0002 255.498 144.772 156.908 277.188 92.9401C277.188 92.9401 308.171 282.056 456.421 353.436C604.671 424.815 769.659 313.819 769.659 313.819C769.659 469.922 643.113 596.468 487.011 596.468Z" fill="#ED79B5"/>
<path d="M369.404 317.46C259.023 207.079 172.836 -149.253 237.627 -214.043C278.866 -255.283 438.221 -235.356 577.086 -186.955C577.086 -186.955 465.269 -31.3218 519.624 123.98C573.98 279.281 769.13 317.46 769.13 317.46C658.749 427.841 479.786 427.841 369.404 317.46Z" fill="#F3516B"/>
<path d="M483.533 37.0106C483.533 -119.092 674.554 -432 766.182 -432C824.503 -432 923.093 -305.228 987.061 -172.812C987.061 -172.812 797.945 -141.829 726.566 6.42098C655.186 154.671 766.182 319.659 766.182 319.659C610.079 319.659 483.533 193.113 483.533 37.0106Z" fill="#FA2921"/>
<path d="M766.182 -433.552C781.276 -433.552 798.712 -425.379 817.24 -411.361C835.813 -397.31 855.69 -377.228 875.7 -353.052C911.443 -309.871 947.725 -253.493 977.888 -194.71C1000.13 -201.833 1022.69 -208.201 1045.02 -213.682C1100.58 -227.323 1154.77 -235.496 1199.16 -236.192C1221.36 -236.54 1241.15 -235.02 1257.47 -231.356C1273.77 -227.698 1286.75 -221.866 1295.14 -213.471C1305.81 -202.798 1312.36 -184.69 1315.55 -161.677C1318.75 -138.607 1318.61 -110.352 1315.66 -79.1072C1310.4 -23.2998 1296.19 42.221 1275.95 105.115C1296.72 115.808 1317.17 127.257 1336.84 139.168C1385.77 168.812 1429.87 201.348 1461.75 232.246C1477.69 247.694 1490.61 262.768 1499.56 276.898C1508.5 291.006 1513.55 304.308 1513.55 316.181C1513.55 331.275 1505.38 348.711 1491.36 367.24C1477.31 385.812 1457.23 405.688 1433.05 425.699C1389.87 461.442 1333.49 497.724 1274.71 527.887C1281.83 550.133 1288.2 572.691 1293.68 595.019C1307.32 650.582 1315.5 704.767 1316.19 749.16C1316.54 771.355 1315.02 791.152 1311.36 807.471C1307.7 823.765 1301.87 836.747 1293.47 845.142C1282.8 855.815 1264.69 862.365 1241.68 865.554C1218.61 868.751 1190.35 868.605 1159.11 865.66C1103.3 860.4 1037.78 846.19 974.884 825.952C964.191 846.72 952.743 867.174 940.831 886.838C911.188 935.773 878.652 979.868 847.753 1011.75C832.305 1027.69 817.232 1040.61 803.102 1049.56C788.993 1058.5 775.691 1063.55 763.819 1063.55C748.724 1063.55 731.288 1055.38 712.76 1041.36C694.187 1027.31 674.311 1007.23 654.3 983.052C618.558 939.87 582.276 883.492 552.113 824.708C529.867 831.832 507.309 838.201 484.982 843.683C429.418 857.324 375.232 865.497 330.839 866.193C308.644 866.541 288.847 865.021 272.529 861.357C256.235 857.698 243.254 851.867 234.859 843.472C224.185 832.799 217.636 814.69 214.447 791.676C211.249 768.607 211.394 740.352 214.339 709.108C219.599 653.3 233.809 587.779 254.046 524.885C233.279 514.192 212.826 502.744 193.162 490.832C144.227 461.189 100.133 428.653 68.2502 397.754C52.3102 382.306 39.387 367.233 30.4387 353.103C21.5041 338.994 16.4476 325.692 16.4475 313.82C16.4475 298.725 24.6211 281.289 38.6389 262.761C52.6904 244.188 72.7718 224.312 96.9475 204.301C140.129 168.559 196.507 132.276 255.29 102.113C248.167 79.8672 241.799 57.3086 236.318 34.9817C222.677 -20.5817 214.504 -74.7679 213.808 -119.161C213.46 -141.355 214.981 -161.152 218.645 -177.47C222.303 -193.765 228.134 -206.746 236.529 -215.141C247.202 -225.815 265.311 -232.364 288.324 -235.553C311.393 -238.751 339.648 -238.606 370.893 -235.661C426.7 -230.401 492.221 -216.19 555.115 -195.953C565.808 -216.72 577.256 -237.174 589.168 -256.838C618.812 -305.773 651.349 -349.867 682.247 -381.75C697.695 -397.69 712.769 -410.613 726.899 -419.561C741.007 -428.496 754.309 -433.552 766.182 -433.552Z" stroke="#0C1117" stroke-width="3.10603"/>
<path fill-rule="evenodd" clip-rule="evenodd" d="M483.532 37.0104C483.532 -119.092 674.553 -432 766.181 -432C824.055 -432 921.582 -307.166 985.582 -175.858L952.915 -164.875C940.576 -189.89 926.97 -214.68 912.643 -238.331C883.906 -285.769 852.944 -327.506 824.465 -356.891C810.201 -371.61 797.313 -382.445 786.354 -389.385C774.922 -396.624 768.417 -397.834 766.181 -397.834C763.945 -397.834 757.44 -396.624 746.008 -389.385C735.049 -382.445 722.161 -371.61 707.897 -356.891C679.418 -327.506 648.456 -285.769 619.719 -238.331C591.064 -191.029 565.292 -139.165 546.78 -90.073C528.053 -40.4119 517.699 3.95285 517.699 37.0105C517.699 174.243 628.948 285.493 766.181 285.493V319.659C610.078 319.659 483.532 193.113 483.532 37.0104Z" fill="#0C1117"/>
<path fill-rule="evenodd" clip-rule="evenodd" d="M762.54 -80.5961C872.921 -190.977 1229.25 -277.164 1294.04 -212.374C1334.97 -171.45 1315.66 -14.2172 1268.06 123.886L1237.2 108.553C1246.16 82.1402 1254.07 54.9893 1260.66 28.1354C1273.89 -25.7285 1281.51 -77.1345 1282.15 -118.051C1282.47 -138.545 1281.02 -155.319 1278.17 -167.976C1275.21 -181.178 1271.47 -186.633 1269.88 -188.215C1268.3 -189.796 1262.85 -193.54 1249.65 -196.504C1236.99 -199.346 1220.21 -200.799 1199.72 -200.477C1158.8 -199.836 1107.4 -192.217 1053.53 -178.993C999.825 -165.808 944.927 -147.358 897.124 -125.735C848.767 -103.861 810.074 -79.8121 786.699 -56.4369C704.941 25.321 692.067 149.878 748.076 245.114C752.94 253.384 758.322 261.432 764.224 269.212C771.026 278.179 778.518 286.789 786.699 294.97L762.54 319.129C652.159 208.748 652.159 29.7851 762.54 -80.5961Z" fill="#0C1117"/>
<path fill-rule="evenodd" clip-rule="evenodd" d="M369.404 317.46C259.023 207.078 172.836 -149.253 237.627 -214.044C278.55 -254.967 435.783 -235.658 573.886 -188.064L558.553 -157.199C532.141 -166.162 504.99 -174.07 478.136 -180.663C424.272 -193.887 372.866 -201.506 331.95 -202.147C311.455 -202.468 294.681 -201.016 282.024 -198.174C268.822 -195.21 263.367 -191.466 261.786 -189.884C260.205 -188.303 256.46 -182.848 253.496 -169.646C250.654 -156.989 249.202 -140.215 249.523 -119.721C250.164 -78.8043 257.783 -27.3984 271.007 26.4655C284.193 80.1748 302.642 135.072 324.265 182.875C346.139 231.233 370.188 269.925 393.563 293.3C490.602 390.339 647.932 390.339 744.97 293.3L769.13 317.46C658.749 427.841 479.785 427.841 369.404 317.46Z" fill="#0C1117"/>
<path fill-rule="evenodd" clip-rule="evenodd" d="M1042.99 33.5321C1199.09 33.5321 1512 224.553 1512 316.181C1512 374.055 1387.16 471.582 1255.86 535.582L1244.87 502.915C1269.89 490.576 1294.68 476.97 1318.33 462.643C1365.77 433.906 1407.5 402.944 1436.89 374.465C1451.61 360.201 1462.44 347.312 1469.38 336.353C1476.62 324.922 1477.83 318.417 1477.83 316.181C1477.83 313.944 1476.62 307.439 1469.38 296.008C1462.44 285.049 1451.61 272.161 1436.89 257.896C1407.5 229.418 1365.77 198.456 1318.33 169.719C1271.03 141.064 1219.16 115.292 1170.07 96.7797C1120.41 78.0529 1076.05 67.6984 1042.99 67.6984C905.755 67.6984 794.506 178.948 794.506 316.181H760.34C760.34 300.179 761.669 284.488 764.224 269.212C765.588 261.056 767.302 253.018 769.349 245.114C800.866 123.411 911.431 33.5321 1042.99 33.5321Z" fill="#0C1117"/>
<path fill-rule="evenodd" clip-rule="evenodd" d="M1160.59 312.54C1270.98 422.922 1357.16 779.253 1292.37 844.044C1251.45 884.967 1094.22 865.658 956.113 818.064L971.445 787.199C997.858 796.162 1025.01 804.071 1051.86 810.663C1105.73 823.887 1157.13 831.506 1198.05 832.147C1218.54 832.468 1235.32 831.016 1247.97 828.174C1261.18 825.21 1266.63 821.466 1268.21 819.884C1269.79 818.303 1273.54 812.848 1276.5 799.646C1279.34 786.989 1280.8 770.215 1280.48 749.721C1279.83 708.804 1272.22 657.398 1258.99 603.534C1245.81 549.825 1227.36 494.928 1205.73 447.125C1183.86 398.767 1159.81 360.075 1136.44 336.7C1039.4 239.661 882.067 239.661 785.028 336.7L760.869 312.54C871.25 202.159 1050.21 202.159 1160.59 312.54Z" fill="#0C1117"/>
<path fill-rule="evenodd" clip-rule="evenodd" d="M1046.47 592.99C1046.47 749.092 855.446 1062 763.818 1062C705.944 1062 608.416 937.166 544.417 805.858L577.084 794.875C589.422 819.89 603.029 844.68 617.356 868.331C646.093 915.769 677.055 957.506 705.533 986.891C719.798 1001.61 732.686 1012.44 743.645 1019.38C755.077 1026.62 761.582 1027.83 763.818 1027.83C766.054 1027.83 772.559 1026.62 783.991 1019.38C794.95 1012.44 807.838 1001.61 822.102 986.891C850.581 957.506 881.543 915.769 910.28 868.331C938.934 821.029 964.707 769.165 983.219 720.073C1001.95 670.412 1012.3 626.047 1012.3 592.99C1012.3 455.757 901.051 344.507 763.818 344.507V310.341C919.92 310.341 1046.47 436.887 1046.47 592.99Z" fill="#0C1117"/>
<path fill-rule="evenodd" clip-rule="evenodd" d="M767.459 710.596C657.078 820.977 300.746 907.164 235.956 842.374C195.032 801.45 214.341 644.217 261.935 506.114L292.801 521.447C283.837 547.86 275.929 575.011 269.336 601.865C256.112 655.729 248.494 707.135 247.852 748.051C247.531 768.545 248.983 785.32 251.825 797.976C254.789 811.178 258.534 816.633 260.115 818.215C261.696 819.796 267.151 823.54 280.353 826.505C293.01 829.346 309.784 830.799 330.279 830.477C371.195 829.836 422.601 822.217 476.465 808.993C530.174 795.808 585.072 777.358 632.874 755.735C681.232 733.861 719.924 709.812 743.3 686.437C840.338 589.399 840.338 432.068 743.3 335.03L767.459 310.871C877.84 421.252 877.84 600.215 767.459 710.596Z" fill="#0C1117"/>
<path fill-rule="evenodd" clip-rule="evenodd" d="M487.011 596.468C330.908 596.468 18.0002 405.447 18.0002 313.819C18.0002 255.945 142.834 158.418 274.142 94.4181L285.125 127.085C260.111 139.424 235.32 153.03 211.669 167.357C164.231 196.094 122.494 227.056 93.1088 255.535C78.39 269.799 67.5555 282.688 60.6155 293.646C53.3763 305.078 52.1666 311.583 52.1666 313.819C52.1666 316.055 53.3763 322.561 60.6155 333.992C67.5555 344.951 78.39 357.839 93.1088 372.104C122.494 400.582 164.231 431.544 211.669 460.281C258.971 488.936 310.836 514.708 359.927 533.22C409.588 551.947 453.953 562.301 487.011 562.301C624.244 562.301 735.493 451.052 735.493 313.819H769.659C769.659 469.922 643.113 596.468 487.011 596.468Z" fill="#0C1117"/>
<path d="M748.076 245.114C752.94 253.384 758.322 261.432 764.224 269.212C765.588 261.056 767.302 253.018 769.349 245.114C769.349 245.114 766.553 251.326 760.341 251.326C751.854 251.326 748.076 245.114 748.076 245.114Z" fill="#0C1117"/>
<path d="M802.229 254.432C799.821 263.719 797.936 273.216 796.608 282.891C803.34 278.088 810.235 273.616 817.271 269.474C817.271 269.474 810.902 271.89 806.509 267.498C800.508 261.496 802.229 254.432 802.229 254.432Z" fill="#0C1117"/>
<path d="M826.189 352.272C816.903 349.864 807.405 347.979 797.731 346.651C802.534 353.383 807.006 360.278 811.147 367.314C811.147 367.314 808.731 360.945 813.124 356.552C819.125 350.551 826.189 352.272 826.189 352.272Z" fill="#0C1117"/>
<path d="M781.835 384.575C776.972 376.305 771.589 368.257 765.687 360.477C764.323 368.633 762.609 376.671 760.562 384.575C760.562 384.575 763.358 378.363 769.57 378.363C778.057 378.363 781.835 384.575 781.835 384.575Z" fill="#0C1117"/>
<path d="M727.604 376.189C730.012 366.902 731.897 357.405 733.225 347.73C726.493 352.533 719.598 357.005 712.562 361.147C712.562 361.147 718.931 358.731 723.324 363.124C729.325 369.125 727.604 376.189 727.604 376.189Z" fill="#0C1117"/>
<path d="M695.115 331.928C703.384 327.064 711.432 321.682 719.213 315.78C711.056 314.416 703.018 312.702 695.115 310.655C695.115 310.655 701.327 313.451 701.327 319.663C701.327 328.15 695.115 331.928 695.115 331.928Z" fill="#0C1117"/>
<path d="M703.812 277.728C713.098 280.136 722.595 282.021 732.27 283.349C727.467 276.617 722.995 269.722 718.853 262.686C718.853 262.686 721.269 269.055 716.877 273.448C710.875 279.449 703.812 277.728 703.812 277.728Z" fill="#0C1117"/>
<path d="M834.886 298.072C826.616 302.935 818.568 308.318 810.788 314.22C818.944 315.584 826.982 317.298 834.886 319.345C834.886 319.345 828.674 316.549 828.674 310.337C828.674 301.85 834.886 298.072 834.886 298.072Z" fill="#0C1117"/>
</g>
<rect width="1081" height="982" fill="url(#paint0_linear_146_338)"/>
</g>
<defs>
<linearGradient id="paint0_linear_146_338" x1="1081" y1="0" x2="103.512" y2="1076.03" gradientUnits="userSpaceOnUse">
<stop stop-color="#1F262F" stop-opacity="0.56"/>
<stop offset="0.658654" stop-color="#1F262F"/>
</linearGradient>
<clipPath id="clip0_146_338">
<rect width="1081" height="982" fill="white"/>
</clipPath>
</defs>
</svg>
